<svg width="839" height="206" viewBox="0 0 839 206" fill="none" xmlns="http://www.w3.org/2000/svg">
<path fill-rule="evenodd" clip-rule="evenodd" d="M1.11059 164.842L31.3884 29.4992C35.846 26.6857 40.5596 24.3002 45.4662 22.3745C49.7318 20.6908 54.097 19.2711 58.5369 18.1236C69.2598 15.3492 80.2947 13.9635 91.3706 14.0007C107.67 14.0007 121.601 16.7493 133.162 22.2464C137.341 24.185 141.253 26.655 144.8 29.5952C150.983 34.6654 155.333 41.6234 157.184 49.4028L189.589 183.467C179.734 196.261 163.673 202.658 141.406 202.658C137.271 202.678 133.142 202.357 129.06 201.697C123.445 200.759 118.416 199.137 113.972 196.829C111.567 195.61 109.342 194.064 107.361 192.234C103.923 189.055 101.647 184.817 100.896 180.195L97.7661 162.85C103.414 162.763 109 161.655 114.254 159.581C115.173 159.224 116.076 158.83 116.962 158.398C119.952 156.927 121.666 155.411 122.103 153.851C122.177 153.587 122.216 153.315 122.216 153.041C122.23 152.412 122.108 151.787 121.86 151.209C121.611 150.631 121.241 150.113 120.775 149.69C120.645 149.569 120.509 149.454 120.368 149.346C118.251 150.834 115.974 152.079 113.579 153.059C111.489 153.918 109.34 154.626 107.148 155.175C104.667 155.813 102.152 156.311 99.6147 156.666C97.3076 156.99 94.9811 157.156 92.6514 157.164C88.9262 157.183 85.2045 156.928 81.5167 156.401C77.6333 155.825 74.1187 154.92 70.9729 153.688C68.1576 152.607 65.5034 151.146 63.0839 149.346C62.7916 149.751 62.5308 150.177 62.3037 150.622C61.8768 151.472 61.6633 152.278 61.6633 153.041C61.6838 154.227 62.1542 155.36 62.9791 156.212C63.9495 157.295 65.4554 158.284 67.4971 159.179C68.1256 159.453 68.7635 159.706 69.4096 159.936C74.5738 161.786 80.852 162.947 88.2441 163.421C88.4542 165.776 88.6881 168.129 88.9457 170.479C89.918 179.245 90.9446 184.562 92.0256 186.431C92.0854 186.537 92.1515 186.639 92.2235 186.737C90.8068 189.493 87.4271 192.266 82.0843 195.055C80.5158 195.868 78.9196 196.625 77.2986 197.327C71.6158 199.77 65.6073 201.373 59.4626 202.084C56.2304 202.473 52.9776 202.664 49.7222 202.658C44.1225 202.692 38.535 202.132 33.0535 200.986C26.6516 199.654 20.5164 197.264 14.9002 193.914C12.235 192.343 9.7723 190.451 7.5673 188.28C5.28549 186.1 3.47286 183.476 2.24047 180.57C1.00809 177.665 0.381904 174.538 0.400296 171.381C0.398163 170.356 0.443819 169.331 0.537115 168.31C0.653557 167.063 0.844716 165.908 1.11059 164.842ZM264.924 93.0477V93.7581C264.924 94.1483 264.957 94.4103 265.023 94.5442C265.034 94.5688 265.049 94.5914 265.067 94.6112C266.086 94.518 267.422 94.4705 269.076 94.4685C269.113 94.4685 269.151 94.4685 269.189 94.4685H272.601C280.391 94.4321 288.156 95.3562 295.72 97.22C298.16 97.8314 300.572 98.5503 302.949 99.3746C309.013 101.422 314.655 104.554 319.6 108.619C321.943 110.57 324.101 112.733 326.045 115.083C330.772 120.96 333.896 127.962 335.113 135.406C335.714 138.882 336.009 142.405 335.995 145.934C336.056 152.035 335.277 158.115 333.68 164.003C330.884 174.35 324.628 183.427 315.955 189.721C308.898 194.83 300.959 198.59 292.536 200.812C285.978 202.621 278.812 203.765 271.038 204.244C268.15 204.421 265.258 204.508 262.366 204.507C255.836 204.532 249.311 204.171 242.824 203.423C236.179 202.63 230.108 201.399 224.612 199.732C219.46 198.211 214.503 196.092 209.844 193.416C205.513 190.963 201.665 187.739 198.491 183.904C193.411 177.613 190.87 169.932 190.87 160.862C190.87 155.553 192.007 150.695 194.282 146.289C194.973 144.934 195.751 143.625 196.611 142.37C197.49 141.103 198.405 140.001 199.356 139.065C200.146 138.279 201.017 137.579 201.956 136.978C205.719 140.124 210.701 142.962 216.904 145.491C219.441 146.52 222.018 147.45 224.627 148.281C233.981 151.244 243.714 152.838 253.525 153.012C254.387 153.031 255.25 153.041 256.113 153.041C258.884 153.041 260.794 152.565 261.842 151.612C262.155 151.326 262.403 150.975 262.567 150.584C262.732 150.193 262.809 149.77 262.794 149.346C262.794 148.475 262.71 147.715 262.543 147.067C262.494 146.875 262.435 146.687 262.366 146.502C262.098 146.54 261.829 146.569 261.559 146.589C261.258 146.612 260.936 146.628 260.593 146.636C260.378 146.641 260.164 146.644 259.949 146.644H258.386C251.93 146.677 245.48 146.205 239.098 145.232C232.348 144.167 226.21 142.496 220.685 140.221C217.019 138.725 213.508 136.877 210.2 134.701C197.424 126.271 190.63 114.6 189.816 99.689C189.76 98.6612 189.732 97.6321 189.732 96.6027C189.645 89.6341 190.924 82.716 193.496 76.239C196.658 68.6445 201.667 61.9607 208.069 56.7954C219.926 47.0066 235.667 41.5017 255.292 40.2808C258.167 40.104 261.048 40.0166 263.929 40.0188C275.585 40.0188 286.459 41.2504 296.553 43.7136C300.753 44.7279 304.898 45.9621 308.969 47.4113C313.933 49.1951 318.441 51.2333 322.493 53.5257C323.101 54.8714 323.578 56.2726 323.917 57.7096C324.648 60.6872 325.066 64.3102 325.169 68.5786C325.185 69.2948 325.193 70.0111 325.192 70.7274C325.218 74.2562 324.875 77.7781 324.167 81.2353C323.249 85.5523 321.714 89.3441 319.562 92.6109C318.44 94.3155 317.135 95.8923 315.67 97.3132C310.837 94.6578 304.939 92.4537 297.974 90.7009C291.008 88.9482 284.73 88.0718 279.139 88.0718C278.164 88.0714 277.189 88.0782 276.213 88.0921C272.307 88.1484 269.776 88.3309 268.621 88.6395C266.314 89.35 265.086 90.6825 264.939 92.6372C264.929 92.7738 264.924 92.9107 264.924 93.0477ZM85.8279 77.9773L91.2279 106.694C91.9867 107.453 93.1715 107.833 94.7823 107.833C95.435 107.837 96.0864 107.775 96.7269 107.649C97.4925 107.501 98.2283 107.226 98.9044 106.837C96.7075 93.991 95.151 85.8172 94.235 82.3155C94.1427 81.9567 94.0408 81.6004 93.9294 81.247C93.3743 79.7834 92.6718 78.71 91.8218 78.0268C91.0938 77.432 90.1796 77.1124 89.2397 77.1242C88.8544 77.127 88.4703 77.1669 88.0927 77.2435C87.7124 77.3192 87.3087 77.4289 86.8817 77.5725C86.5252 77.6934 86.1737 77.8284 85.8279 77.9773Z" fill="#818CF8"/>
<path fill-rule="evenodd" clip-rule="evenodd" d="M590.65 149.135L583.827 152.119C583.844 155.857 584.236 159.583 584.997 163.242C585.64 166.363 586.484 169.439 587.524 172.451C588.852 176.862 590.625 181.126 592.816 185.178C593.841 187.061 594.969 188.888 596.193 190.648C589.878 197.081 581.821 201.526 573.012 203.436C567.793 204.616 562.456 205.191 557.106 205.148C552.572 205.184 548.058 204.549 543.709 203.264C539.598 202.026 535.72 200.116 532.231 197.613C529.36 195.66 526.841 193.233 524.782 190.436C521.574 185.941 519.899 180.532 520.005 175.01V9.09874C522.417 7.70543 524.929 6.49376 527.521 5.4738C530.257 4.38487 533.225 3.41336 536.423 2.55929C542.82 0.853098 549.287 0 555.825 0C566.722 0 575.725 2.13323 582.834 6.39969C585.771 8.17605 588.339 10.4998 590.4 13.2449C593.41 17.3502 594.915 22.2708 594.915 28.0067V43.0771C594.912 55.6991 592.649 68.2186 588.234 80.0427C587.382 81.2734 585.865 83.0504 583.684 85.3739C582.017 87.1519 580.613 88.8047 579.472 90.3323C579.136 90.7797 578.811 91.235 578.496 91.6978C578.16 92.194 577.851 92.7082 577.571 93.2381C576.961 94.393 576.632 95.4354 576.584 96.3651C576.58 96.4447 576.578 96.5243 576.578 96.6039C576.578 97.8365 577.493 98.9739 579.323 100.016C579.542 100.141 579.764 100.259 579.99 100.371C584.666 96.032 588.857 91.1976 592.49 85.9533C594.295 83.3288 595.935 80.5944 597.401 77.7658C599.036 74.5712 600.508 71.2953 601.811 67.9509C604.349 61.5065 606.741 53.9732 608.987 45.351C609.563 45.263 610.138 45.1718 610.713 45.0774C611.499 44.9473 612.345 44.8017 613.251 44.6406C613.72 44.5579 614.189 44.4764 614.657 44.396C616.266 44.1223 618.475 43.7535 621.283 43.2896C622.142 43.1486 623.001 43.0156 623.862 42.8907C626.152 42.5569 627.868 42.3822 629.009 42.3666C629.062 42.3663 629.116 42.3663 629.169 42.3666C633.634 42.3401 638.093 42.7016 642.496 43.4469C647.408 44.3087 651.821 45.6898 655.735 47.5901C658.431 48.8869 660.965 50.4975 663.284 52.3884C666.783 55.226 669.659 58.7565 671.73 62.7583C673.801 66.7601 675.022 71.1469 675.318 75.6433C675.446 77.0586 675.509 78.479 675.507 79.9C675.735 90.9405 671.775 101.658 664.422 109.895C657.598 117.384 648.738 123.024 637.841 126.815C642.053 129.254 646.491 131.281 651.092 132.868C655.513 134.421 660.317 135.726 665.505 136.784C667.269 137.144 669.04 137.47 670.817 137.762C675.875 146.82 678.519 157.027 678.494 167.402C678.539 171.949 677.825 176.472 676.38 180.784C674.725 185.582 672.051 189.965 668.544 193.633C663.405 198.915 656.789 202.519 649.564 203.969C645.733 204.78 641.826 205.176 637.911 205.148C631.492 205.238 625.14 203.832 619.359 201.04C614.124 198.399 609.5 194.689 605.787 190.151C601.429 184.86 598.021 178.854 595.715 172.399C593.192 165.562 591.504 157.808 590.65 149.135ZM828.454 104.352V132.216C828.454 136.775 828.791 140.742 829.467 144.115C829.771 145.676 830.192 147.212 830.727 148.71C832.176 152.796 834.986 156.26 838.686 158.519C838.764 158.907 838.809 159.583 838.823 160.545C838.826 160.77 838.828 160.994 838.829 161.218V163.777C838.867 168.186 838.359 172.581 837.318 176.865C835.651 183.906 831.92 190.289 826.605 195.196C819.403 201.831 810.495 205.148 799.882 205.148C792.959 205.221 786.141 203.454 780.124 200.03C774.265 196.746 769.739 191.516 767.33 185.245C766.696 185.236 766.064 185.311 765.45 185.469C763.482 186.004 762.498 187.494 762.498 189.938C762.498 192.591 764.156 195.577 767.473 198.894C765.046 200.494 762.402 201.736 759.622 202.583C754.584 204.183 748.422 205.035 741.137 205.139C740.629 205.146 740.122 205.149 739.614 205.148C722.259 205.148 708.363 200.481 697.928 191.146C697.822 191.052 697.716 190.957 697.611 190.861C690.188 184.059 685.164 175.038 683.288 165.146C682.339 160.461 681.876 155.691 681.906 150.911C681.854 145.308 682.545 139.722 683.961 134.3C686.301 125.266 691.395 117.184 698.536 111.176C705.243 105.67 713.194 101.887 721.697 100.156C727.027 99.0349 732.462 98.4873 737.908 98.5226C742.871 98.5132 747.828 98.842 752.746 99.5067C753.107 99.5562 753.468 99.6077 753.829 99.6611C757.049 100.286 758.875 100.659 759.307 100.779C759.329 100.784 759.35 100.79 759.372 100.797C759.464 100.491 759.544 100.182 759.613 99.8707C759.681 99.5621 759.731 99.2719 759.762 99.0001C759.786 98.7943 759.798 98.5872 759.799 98.38C759.8 97.7458 759.643 97.1213 759.344 96.5621C759.045 96.0029 758.612 95.5262 758.085 95.1743C757.147 94.4775 755.827 93.9301 754.123 93.5322C753.93 93.4867 753.737 93.444 753.544 93.404C751.971 93.0895 750.385 92.8466 748.79 92.6761C745.477 92.3093 741.613 92.1259 737.198 92.1259C731.396 92.0933 725.604 92.6296 719.906 93.7272C713.106 95.0195 706.56 97.407 700.525 100.797C696.389 93.7913 694.095 85.1312 693.643 74.8164C693.588 73.5263 693.56 72.2352 693.561 70.944C693.556 69.1611 693.623 67.3786 693.762 65.6012C694.05 62.1053 694.642 59.2384 695.541 57.0003C695.714 56.5684 695.908 56.1448 696.12 55.7309C698.884 54.476 701.705 53.3518 704.574 52.3622C709.705 50.5744 715.557 48.9245 722.13 47.4125C731.274 45.3396 740.597 44.1558 749.969 43.8778C751.776 43.8179 753.584 43.7879 755.392 43.7875C762.207 43.7504 769.015 44.241 775.755 45.255C782.852 46.3633 789.243 48.1035 794.927 50.4755C800.387 52.701 805.465 55.7692 809.974 59.5684C819.059 67.3583 825.135 78.0803 827.149 89.8781C828.042 94.6503 828.479 99.4967 828.454 104.352ZM754.682 139.183C750.701 139.183 748.711 140.984 748.711 144.587C748.69 145.416 748.866 146.238 749.224 146.986C749.959 148.436 751.483 149.306 753.794 149.595C754.419 149.67 755.048 149.706 755.677 149.703C756.552 149.708 757.425 149.641 758.289 149.502C759.205 149.348 760.025 149.106 760.748 148.774C761.509 148.433 762.199 147.953 762.783 147.359C764.159 145.94 764.91 143.566 765.036 140.237C765.05 139.886 765.057 139.535 765.057 139.183H754.682Z" fill="#818CF8"/>
<path d="M418.68 33.5352C390.107 36.7801 362.546 57.2878 351.673 83.5065C346.616 95.7072 343.076 114.398 344.214 123.613C347.122 148.145 354.328 164.759 367.729 178.647C376.706 187.862 380.372 190.718 390.866 196.039C404.141 202.659 414.255 205.125 428.162 204.995C460.781 204.865 489.353 186.824 503.387 157.36C514.892 133.478 514.892 104.923 503.261 80.7808C487.836 48.4617 453.953 29.5115 418.68 33.5352ZM445.736 45.7359C450.161 46.9041 457.746 49.8894 462.677 52.4853C472.159 57.5473 472.033 59.1049 462.045 59.2347C459.516 59.3645 450.793 61.4412 442.701 63.9073L428.036 68.4502L415.772 64.5563C409.071 62.4796 399.589 60.1433 394.785 59.4943C390.107 58.8453 385.935 57.9367 385.682 57.6771C384.039 56.1196 406.796 46.1253 415.519 44.6976C422.979 43.3996 438.276 43.9188 445.736 45.7359ZM386.567 68.4502C395.038 70.1375 410.336 74.94 411.094 76.3677C411.474 76.8869 409.704 78.5742 407.049 80.2616L402.497 83.2469L410.209 87.1407L417.921 91.0346L422.852 87.6599L427.783 84.2852L433.219 87.5301L438.529 90.9048L445.989 87.1407C450.161 85.1938 453.448 83.1171 453.448 82.7277C453.448 82.3383 451.425 80.9106 448.896 79.6126C446.241 78.3146 444.724 76.8869 445.356 76.2379C447.379 74.291 467.481 68.4502 474.814 67.5416C481.894 66.8926 482.021 66.8926 485.308 71.3057L488.595 75.7187L476.963 78.704C462.298 82.5979 460.401 83.5065 462.424 86.1024C463.309 87.1408 465.585 89.2175 467.608 90.775L471.274 93.3709L481.262 89.9963C486.825 88.1791 492.135 86.6216 493.146 86.6216C496.181 86.6216 500.353 101.548 501.111 115.177C501.87 128.156 500.226 138.929 498.33 133.997C493.526 121.796 463.056 86.6216 457.241 86.6216C454.08 86.6216 447 90.2559 436.127 97.2648L428.162 102.457L420.324 97.2648C415.899 94.5391 409.451 90.6452 405.784 88.8281L399.21 85.3236L395.038 88.8281C381.636 99.8607 368.741 115.306 360.396 130.103L356.856 136.463L355.845 132.05C352.684 117.773 357.994 86.6216 363.431 86.6216C364.569 86.6216 370.131 88.1791 375.947 90.1261L386.441 93.6305L391.119 88.9579L395.67 84.2852L391.371 82.3383C388.969 81.4297 382.901 79.4828 377.97 78.3147C372.913 77.0167 368.741 75.5889 368.741 75.0698C368.741 74.6804 370.005 72.7334 371.649 70.7865C374.683 66.7628 376.579 66.5032 386.567 68.4502ZM410.968 109.206C415.14 112.321 420.45 116.734 422.473 118.941C424.622 121.147 426.898 122.964 427.656 122.964C428.415 122.964 433.219 119.46 438.403 115.047C443.586 110.764 449.276 106.35 451.172 105.312C454.459 103.495 454.712 103.625 462.298 112.451C466.596 117.253 472.412 124.781 475.193 128.935C480.503 136.593 490.112 156.062 490.112 158.788C490.112 160.345 479.998 173.585 478.86 173.585C478.481 173.585 476.711 169.95 475.067 165.407C469.378 150.221 451.298 121.666 444.471 117.383C442.828 116.345 441.058 117.124 436.633 121.017L430.817 125.95L433.219 129.324C434.61 131.141 438.529 136.463 442.069 141.136C449.528 151.13 455.723 162.941 460.275 175.921L463.562 185.396L458.126 187.862C439.794 196.169 417.036 196.429 399.589 188.511L392.889 185.396L395.291 177.998C400.727 161.773 411.853 142.563 422.346 131.012L426.266 126.599L419.944 120.888L413.623 115.177L408.186 121.277C399.842 130.882 390.486 145.549 384.418 158.658C381.384 165.278 378.855 171.248 378.855 172.157C378.855 172.936 378.349 173.585 377.717 173.585C376.453 173.585 366.212 160.865 366.212 159.307C366.212 155.154 381.636 126.599 386.82 121.017C387.705 120.109 391.371 115.826 395.164 111.413C398.831 107.129 402.244 103.495 402.497 103.495C402.876 103.495 406.669 106.091 410.968 109.206Z" fill="#818CF8"/>
<path d="M403 13H453" stroke="#818CF8" stroke-width="18" stroke-linecap="round"/>
</svg>
