<svg preserveAspectRatio="xMidYMid meet" data-bbox="0 0 13656 18168" viewBox="0 0 13656 18168" height="686.668" width="516" xmlns="http://www.w3.org/2000/svg" shape-rendering="geometricPrecision" text-rendering="geometricPrecision" image-rendering="optimizeQuality" fill-rule="evenodd" clip-rule="evenodd" data-type="color" role="presentation" aria-hidden="true" aria-label="">
    <g>
        <path fill="#d3d2e0" fill-rule="nonzero" d="M0 12500h9000V0H0z" data-color="1"></path>
        <path fill="#2a4977" fill-rule="nonzero" d="M0 18168h4342v-5346H0z" data-color="2"></path>
        <path fill="#2a4977" fill-rule="nonzero" d="M4658 18168h4342v-5346H4658z" data-color="2"></path>
        <path fill="#d3d2e0" fill-rule="nonzero" d="M9315 18168h4341v-5346H9315z" data-color="1"></path>
        <path fill="#d3d2e0" fill-rule="nonzero" d="M909 17726v-4392h618v3828h1982v564z" data-color="1"></path>
        <path d="M11582 17704c-875 0-1392-437-1574-1062l540-176c165 483 489 738 1045 738 580 0 910-255 910-665 0-386-239-568-966-795-898-284-1393-523-1393-1267 0-671 580-1137 1381-1137 813 0 1267 398 1455 904l-517 210c-182-420-500-614-926-614-517 0-807 267-807 580 0 386 227 528 977 761 977 296 1381 614 1381 1307 0 733-602 1216-1506 1216" fill="#2a4977" fill-rule="nonzero" data-color="2"></path>
        <path d="M4851 220c-60 66-137 44-211 77-191 83-400 301-440 466-42 169 31 438 254 399 108-19 139-206 254-187 107 19 61 367 211 331 75-18 40-169 85-204 97 18 153 97 203 162 41 51 107 182 186 169 103-16 93-224 51-339-40-110-123-140-101-237 26-124 209-138 313-94 124 53 207 235 178 373-16 71-89 115-85 187 9 142 535 321 500 25-11-88-93-105-144-195-43-74-54-172-94-254-44-91-157-142-127-246 138-7 197 136 271 220 50 57 131 90 178 145 95 108 110 289 203 398 126 148 348 212 508 339 77 61 153 130 221 204 108 120 208 224 245 415-88-5-101-93-144-144-91-109-320-327-542-381-272-67-574 47-880 25-216-15-386-98-381-322-155-39-280 31-424 25-108-4-196-63-296-51-166 20-217 185-381 195-68 5-143-19-186-42-235-124-316-463-559-585-106-53-211-11-330-102 29-110 180-77 296-102 148-30 395-173 381-322-6-67-72-100-169-93-73 5-169 58-263 102-81 38-165 81-245 118-203 96-378 258-644 238-230-18-316-182-559-178 43-75 137-120 221-170 88-53 167-126 262-169 122-56 281-77 440-102 156-25 322-63 466-68 242-9 423 96 610 170 131-129 373-312 668-196" fill="#2a4977" data-color="2"></path>
        <path d="M5647 526c-106-13-113-97-220-110-141-18-324 132-338-60 176-68 620-116 558 170" fill="#2a4977" data-color="2"></path>
        <path d="M2777 1289c-121 209-577-68-660 119-93 208 225 293 195 475-32 184-312 6-441-9-220-24-352 96-542 85-13-163 121-339 220-509 119-202 207-419 348-543 71-63 341-142 415-17 29 51 10 125 25 170 58 170 279 137 440 229" fill="#2a4977" data-color="2"></path>
        <path d="M4801 10244c-61-45-89-193-136-271-48-82-110-202-186-229-112-41-234 4-347 0-364-15-516-336-771-500h-17c-43 88-195 180-177 305 10 75 69 61 93 136-132 52-211 219-161 398 27 99 129 160 127 246-2 49-53 95-68 144-31 105-45 291 0 407 34 89 162 176 237 272 31 38 57 103 85 135 94 106 295 139 406 221 152 112 335 382 517 458 79 33 188 34 279 51 93 16 198 52 271-17-34-61-103-63-161-111-43-35-63-105-110-127-43-20-100 4-144-34-44-299 171-177 322-161 94 10 231 5 296-17 87-29 138-104 237-144 29-11 90-16 127-34 163-75 350-324 331-534-25-263-306-152-449-68-181 106-401 182-610 237-108 29-222 75-338 51 0-62 54-82 67-135 10-39-18-85 9-128 33-53 178-53 262-67 107-18 189-53 254-85 183-89 331-126 373-306-113-164-461 23-618-93m2845-1586c27 10 56 18 93 17 26-55 62-101 76-169-95-75-195 26-169 152m-415 348c-14-157 211-222 254-339 68-188-77-246-246-229-101 10-217 57-347 76-127 19-296 9-373 51-45 25-70 88-127 161-43 56-106 104-135 153-41 69-44 166-76 237-25 55-83 94-110 144-24 44-23 99-43 136-114 214-503 152-482 450 268-4 348-184 575-212 237-29 391 86 551 161 126 59 284 150 423 42-45-43-104-23-101-102 5-157 392-46 431-254 17-89-38-139-33-280-52-89-153-101-161-195m-381-1162c-34 74-94 133-153 178-55 43-139 54-169 128 223 28 385-78 398-289-19-12-41-21-76-17m736-85c-49 76-137 389 43 331 7-108 34-197 25-322-12-13-43-8-68-9m-364 229c150-27 260-159 212-330-164 17-155 206-212 330m1025 60c5-241-44-499-229-577h-17c119 155 93 456 246 577m-6198-475c-62 125 51 278 110 365 70 101 156 234 305 212 232-35 255-594 135-815-49-90-193-218-262-313-108-149-185-367-364-373-20-1-24 8-34 25-54 139-42 347 25 449 86 131 327 148 364 306-75 80-232 50-279 144m-864-1060c-65-123-100-248-203-305h-25c-2 12-19 9-26 17-10 115 71 210 127 296s101 211 212 238c8-90-45-172-85-246m271-534c-234 262 37 821 170 1009 62 15 131 89 203 42-18-123-115-161-161-263-124-274 56-601 59-873-110-40-218 26-271 85m6325-891c31-16 74-21 68-76-50-59-131 47-68 76m127-127c57 2 69 50 119 59 6-15 14-31 16-51-20-34-110-51-135-8m203 7539H449c20-201 161-270 254-407 41-60 72-150 118-229 45-76 109-140 127-221 32-138-32-303-25-440 8-155 71-315 118-475 47-157 52-334 127-475 67-124 306-171 475-229 185-64 393-81 525-161 258-158 273-499 237-916-15-172-25-445-85-568-40-82-163-120-246-187-146-118-187-353-296-526-90-142-235-279-347-449-105-160-227-316-330-467-193-281-498-768-297-1187 155-323 817-394 1135-170-138-236-599-240-881-127-119-122-151-334-220-534-65-190-139-404-152-602-11-170 66-289 51-433-12-111-103-205-127-296-49-182 5-419 76-560 56-111 154-195 203-314 19-46 16-103 34-144 41-91 180-223 296-280 163-80 382-108 601-68 42 51 2 185 51 229 77 16 266-61 280 68 15 147-216 189-204 314 9 87 201 74 246 153 112 196-153 312-195 407-21 49-16 126-51 178-42 63-129 70-177 110-78 65-163 202-153 280 7 56 70 118 127 118 111 2 179-162 237-203 95-67 193-93 347-25 56 203-142 224-169 373 23 36 126-8 136 42 9 76-87 113-43 170 68 34 127-52 195-17 29 142-140 317-25 398 130 93 176-119 296-127 23 201-153 248-110 441 96 17 160-67 228-136 55-54 144-131 144-220 0-94-114-160-118-272-4-88 72-160 68-237-13-225-376-332-381-594-3-149 138-285 110-398-28-111-218-104-254-221-66-208 111-333 135-466 15-82-7-141 9-195 49-171 316-300 499-382 196-88 497-183 711-68-274 210-612 375-677 713-37 192 64 301 59 449-5 169-154 287-178 441-13 91-5 286 34 390 24 64 99 130 127 212 38 111 15 255 60 365 56 142 326 301 330 466 2 81-60 172-102 238-42 65-103 142-161 186-109 85-283 127-313 246-28 111 45 227 85 323 44 105 99 225 118 313 11 50 2 144 26 187 23 44 123 79 194 119 82 45 118 106 178 135 85 42 178 27 186 102 12 105-143 135-228 187-78 47-139 144-237 144-104 0-139-94-229-85-115 155 28 288 17 449-5 70-68 134-85 204-13 57-2 147-8 220-7 86-25 181-42 263-18 87-73 179-68 238 10 120 223 220 313 271 127 72 303 128 339 255 24 84-12 208 17 296 25 80 165 163 245 221 94 67 184 141 288 178 138 48 298 4 457 42 102 25 165 90 246 94 113 5 153-57 271-85 102-24 200-14 245-34 81-35 102-127 187-170 88-44 178-46 254-84 66-34 142-87 194-145 67-74 62-153 102-254 53-132 274-228 305-365 20-90-16-210 0-271 56-136 200-190 288-297 46-57 71-129 118-186 79-96 198-174 297-255 106-87 223-154 347-212-119-71-210 32-322 34-115 3-188-67-288-51-169 27-305 238-398 356-110 141-183 325-372 365 11-240 149-381 279-560 49-68 114-163 186-237 57-58 199-146 220-204 23-61 10-122 26-169 51-151 190-253 389-221-56 86-201 64-254 170-57 116-3 325 93 339 103 15 181-102 246-119 269-70 342 131 516 170 262 59 524-95 551-305 28-224-147-411-237-585-87-169-170-330-246-492-164-353-349-723-347-1128 1-144 8-290 127-382 25 138-65 305 0 433 102-68 167-162 271-229 102-66 214-123 364-144-159-339-321-674-381-1111 122 19 134 152 152 246 65 317 196 634 364 831 57 65 164 107 170 195 3 50-39 99-60 161-44 136-44 249-118 331 84 157-95 246-110 373-9 73 24 159 42 246 39 182 49 354 34 542-7 88-42 178-42 255 0 123 111 241 127 364 27 215-89 354-68 560-93-15-94-121-203-119 17 101 147 109 212 178 93 101 229 406 211 586-11 114-124 167-144 262-11 56 9 119 9 179-1 295-100 523-161 754-35 133-27 270-68 390-41 123-61 244-110 348-49 103-205 185-322 238-129 58-287 71-406 135-104 56-156 156-237 246-64 71-157 139-195 238-32 82-15 175-51 279-33 97-115 154-101 238 16 96 165 135 245 212 105 100 175 295 280 373 50 37 119 50 169 85 126 88 210 223 330 314 129 97 271 146 381 263z" fill="#2a4977" data-color="2"></path>
        <path d="M5757 5368c3 20-1 33-8 42 27 21 52 44 102 43v-102c-44-7-56 18-94 17m322-51c18 41 11 108 26 153 84 0 99-70 93-161-32-23-91-17-119 8m982-1085h26c71 139 141 399 17 525-57 58-128 35-170 111 19 240-65 399-161 576-115 216-228 422-516 450 25-123 183-156 144-314-224 98-605 219-957 136 0-54 60-48 76-85-25-43-91-44-144-59-25-20-17-74-42-94-106 13-164 73-279 77-13-48 45-76 76-102 104-88 255-154 389-221 182-90 383-186 627-186-33-163-192-222-390-195-222 29-728 321-812 483-32 60-32 144-68 170-150-93-24-513 76-594 40-32 105-38 153-68 83-52 145-128 211-220 76-107 100-156 263-170 290-24 577 18 863 43 86 7 176 19 263 42 112 29 255 92 330 17 71-71 13-231 25-322" fill="#2a4977" data-color="2"></path>
        <path d="M5182 5953c61-6 90 63 144 85 128 53 265-11 440-8-85 170-442 196-660 127 11-45 62-45 76-94 10-39-30-79 0-110" fill="#2a4977" data-color="2"></path>
        <path d="M6951 15561v507h1050c-67 691-426 1152-1111 1152-724 0-1133-680-1133-1693 0-1129 481-1676 1161-1676 530 0 801 259 989 852l541-144c-182-737-652-1238-1514-1238-978 0-1762 685-1762 2235 0 1319 641 2188 1685 2188 569 0 912-259 1133-628h11l-1 611h503v-2166z" fill="#d3d2e0" fill-rule="nonzero" data-color="1"></path>
    </g>
</svg>