<svg width="168" height="201" viewBox="0 0 168 201" fill="none" xmlns="http://www.w3.org/2000/svg">
<path d="M74.68 29.5352C46.1072 32.7801 18.5458 53.2878 7.67293 79.5065C2.61579 91.7072 -0.924205 110.398 0.21365 119.613C3.1215 144.145 10.3279 160.759 23.7293 174.647C32.7057 183.862 36.3722 186.718 46.8657 192.039C60.1407 198.659 70.255 201.125 84.1621 200.995C116.781 200.865 145.353 182.824 159.387 153.36C170.892 129.478 170.892 100.923 159.261 76.7808C143.836 44.4617 109.953 25.5115 74.68 29.5352ZM101.736 41.7359C106.161 42.9041 113.746 45.8894 118.677 48.4853C128.159 53.5473 128.033 55.1049 118.045 55.2347C115.516 55.3645 106.793 57.4412 98.7014 59.9073L84.0357 64.4502L71.7721 60.5563C65.0714 58.4796 55.5893 56.1433 50.785 55.4943C46.1072 54.8453 41.935 53.9367 41.6822 53.6771C40.0386 52.1196 62.7957 42.1253 71.5193 40.6976C78.9785 39.3996 94.2764 39.9188 101.736 41.7359ZM42.5672 64.4502C51.0379 66.1375 66.3357 70.94 67.0943 72.3677C67.4736 72.8869 65.7036 74.5742 63.0486 76.2616L58.4971 79.2469L66.2093 83.1407L73.9214 87.0346L78.8521 83.6599L83.7828 80.2852L89.2192 83.5301L94.5292 86.9048L101.989 83.1407C106.161 81.1938 109.448 79.1171 109.448 78.7277C109.448 78.3383 107.425 76.9106 104.896 75.6126C102.241 74.3146 100.724 72.8869 101.356 72.2379C103.379 70.291 123.481 64.4502 130.814 63.5416C137.894 62.8926 138.021 62.8926 141.308 67.3057L144.595 71.7187L132.963 74.704C118.298 78.5979 116.401 79.5065 118.424 82.1024C119.309 83.1408 121.585 85.2175 123.608 86.775L127.274 89.3709L137.262 85.9963C142.825 84.1791 148.135 82.6216 149.146 82.6216C152.181 82.6216 156.353 97.5481 157.111 111.177C157.87 124.156 156.226 134.929 154.33 129.997C149.526 117.796 119.056 82.6216 113.241 82.6216C110.08 82.6216 103 86.2559 92.1271 93.2648L84.1621 98.4566L76.3235 93.2648C71.8985 90.5391 65.4507 86.6452 61.7843 84.8281L55.21 81.3236L51.0379 84.8281C37.6365 95.8607 24.7408 111.306 16.3965 126.103L12.8565 132.463L11.8451 128.05C8.68435 113.773 13.9943 82.6216 19.4308 82.6216C20.5686 82.6216 26.1315 84.1791 31.9472 86.1261L42.4407 89.6305L47.1186 84.9579L51.67 80.2852L47.3714 78.3383C44.9693 77.4297 38.9007 75.4828 33.97 74.3147C28.9129 73.0167 24.7408 71.5889 24.7408 71.0698C24.7408 70.6804 26.005 68.7334 27.6486 66.7865C30.6829 62.7628 32.5793 62.5032 42.5672 64.4502ZM66.9678 105.206C71.14 108.321 76.45 112.734 78.4728 114.941C80.6221 117.147 82.8978 118.964 83.6564 118.964C84.415 118.964 89.2192 115.46 94.4028 111.047C99.5864 106.764 105.276 102.35 107.172 101.312C110.459 99.495 110.712 99.6248 118.298 108.451C122.596 113.253 128.412 120.781 131.193 124.935C136.503 132.593 146.112 152.062 146.112 154.788C146.112 156.345 135.998 169.585 134.86 169.585C134.481 169.585 132.711 165.95 131.067 161.407C125.378 146.221 107.298 117.666 100.471 113.383C98.8278 112.345 97.0578 113.124 92.6328 117.017L86.8171 121.95L89.2192 125.324C90.61 127.141 94.5292 132.463 98.0692 137.136C105.528 147.13 111.723 158.941 116.275 171.921L119.562 181.396L114.126 183.862C95.7935 192.169 73.0364 192.429 55.5893 184.511L48.8886 181.396L51.2907 173.998C56.7271 157.773 67.8528 138.563 78.3464 127.012L82.2657 122.599L75.9443 116.888L69.6228 111.177L64.1864 117.277C55.8421 126.882 46.4864 141.549 40.4179 154.658C37.3836 161.278 34.855 167.248 34.855 168.157C34.855 168.936 34.3493 169.585 33.7172 169.585C32.4529 169.585 22.2122 156.865 22.2122 155.307C22.2122 151.154 37.6365 122.599 42.82 117.017C43.705 116.109 47.3714 111.826 51.1643 107.413C54.8307 103.129 58.2443 99.495 58.4971 99.495C58.8764 99.495 62.6693 102.091 66.9678 105.206Z" fill="#818CF8"/>
<path d="M59 9H109" stroke="#818CF8" stroke-width="18" stroke-linecap="round"/>
</svg>
